<svg width="50" height="50" viewBox="0 0 50 50" fill="none" xmlns="http://www.w3.org/2000/svg">
<path d="M12 23.4031V23.3901V10.3891L11.88 10.3001H11.87L9.14 8.28008C7.47 7.04008 5.09 7.10008 3.61 8.56008C2.62 9.54008 2 10.9001 2 12.4101V16.0121L12 23.4031ZM38 23.3901V23.4031L48 16.0121V12.4101C48 10.9201 47.4 9.56008 46.42 8.58008C44.96 7.12308 42.655 6.95208 40.996 8.17708L38.12 10.3001L38 10.3891V23.3901ZM14 24.8681L24.406 32.5601C24.759 32.8211 25.242 32.8211 25.595 32.5601L36 24.8681V11.8671L25 20.0001L14 11.8671V24.8681ZM38 25.8891V41.0001C38 41.5521 38.448 42.0001 39 42.0001H45.5C46.881 42.0001 48 40.8811 48 39.5001V18.4971L38 25.8891ZM12 25.8891L2 18.4971V39.5001C2 40.8811 3.119 42.0001 4.5 42.0001H11C11.552 42.0001 12 41.5521 12 41.0001V25.8891Z" fill="#058006"/>
</svg>
